<svg width="100" height="100" viewBox="0 0 100 100" fill="none" xmlns="http://www.w3.org/2000/svg">
<g clip-path="url(#clip0_10_107)">
<g filter="url(#filter0_d_10_107)">
<path d="M75 33.3333H79.1667C83.5869 33.3333 87.8262 35.0893 90.9518 38.2149C94.0774 41.3405 95.8333 45.5797 95.8333 50C95.8333 54.4203 94.0774 58.6595 90.9518 61.7851C87.8262 64.9107 83.5869 66.6667 79.1667 66.6667H75M75 33.3333H8.33334V70.8333C8.33334 75.2536 10.0893 79.4928 13.2149 82.6184C16.3405 85.7441 20.5797 87.5 25 87.5H58.3333C62.7536 87.5 66.9928 85.7441 70.1185 82.6184C73.2441 79.4928 75 75.2536 75 70.8333V33.3333ZM25 4.16667V16.6667M41.6667 4.16667V16.6667M58.3333 4.16667V16.6667" stroke="#8BBEB2" stroke-width="7" stroke-linecap="round" stroke-linejoin="round"/>
</g>
</g>
<defs>
<filter id="filter0_d_10_107" x="0.833344" y="0.666672" width="102.5" height="98.3333" filterUnits="userSpaceOnUse" color-interpolation-filters="sRGB">
<feFlood flood-opacity="0" result="BackgroundImageFix"/>
<feColorMatrix in="SourceAlpha" type="matrix" values="0 0 0 0 0 0 0 0 0 0 0 0 0 0 0 0 0 0 127 0" result="hardAlpha"/>
<feOffset dy="4"/>
<feGaussianBlur stdDeviation="2"/>
<feColorMatrix type="matrix" values="0 0 0 0 0.294118 0 0 0 0 0.333333 0 0 0 0 0.388235 0 0 0 0.7 0"/>
<feBlend mode="normal" in2="BackgroundImageFix" result="effect1_dropShadow_10_107"/>
<feBlend mode="normal" in="SourceGraphic" in2="effect1_dropShadow_10_107" result="shape"/>
</filter>
<clipPath id="clip0_10_107">
<rect width="100" height="100" fill="white"/>
</clipPath>
</defs>
</svg>
