<svg width="502" height="266" viewBox="0 0 502 266" fill="none" xmlns="http://www.w3.org/2000/svg">
<g filter="url(#filter0_d_10_104)">
<mask id="path-1-outside-1_10_104" maskUnits="userSpaceOnUse" x="8" y="33" width="481" height="94" fill="black">
<rect fill="white" x="8" y="33" width="481" height="94"/>
<path d="M9.24 124V34.6H41.76C47.76 34.6 53.04 35.72 57.6 37.96C62.16 40.12 65.72 43.32 68.28 47.56C70.92 51.72 72.24 56.72 72.24 62.56C72.24 68.72 70.68 74 67.56 78.4C64.52 82.8 60.4 86 55.2 88L75.84 124H59.76L37.8 85L47.04 90.4H23.4V124H9.24ZM23.4 77.8H42C45.28 77.8 48.12 77.16 50.52 75.88C52.92 74.6 54.76 72.84 56.04 70.6C57.4 68.28 58.08 65.56 58.08 62.44C58.08 59.32 57.4 56.64 56.04 54.4C54.76 52.08 52.92 50.32 50.52 49.12C48.12 47.84 45.28 47.2 42 47.2H23.4V77.8ZM114.123 125.44C107.883 125.44 102.163 123.96 96.9628 121C91.8428 118.04 87.7628 114 84.7228 108.88C81.6828 103.76 80.1628 97.96 80.1628 91.48C80.1628 84.92 81.6828 79.12 84.7228 74.08C87.7628 68.96 91.8428 64.96 96.9628 62.08C102.083 59.12 107.803 57.64 114.123 57.64C120.523 57.64 126.243 59.12 131.283 62.08C136.403 64.96 140.443 68.96 143.403 74.08C146.443 79.12 147.963 84.92 147.963 91.48C147.963 98.04 146.443 103.88 143.403 109C140.363 114.12 136.283 118.16 131.163 121.12C126.043 124 120.363 125.44 114.123 125.44ZM114.123 112.84C117.963 112.84 121.363 111.92 124.323 110.08C127.283 108.24 129.603 105.72 131.283 102.52C133.043 99.24 133.923 95.56 133.923 91.48C133.923 87.4 133.043 83.76 131.283 80.56C129.603 77.36 127.283 74.84 124.323 73C121.363 71.16 117.963 70.24 114.123 70.24C110.363 70.24 106.963 71.16 103.923 73C100.963 74.84 98.6028 77.36 96.8428 80.56C95.1628 83.76 94.3228 87.4 94.3228 91.48C94.3228 95.56 95.1628 99.24 96.8428 102.52C98.6028 105.72 100.963 108.24 103.923 110.08C106.963 111.92 110.363 112.84 114.123 112.84ZM175.749 124L153.429 59.08H167.829L184.869 110.8H179.829L197.229 59.08H209.589L226.869 110.8H221.829L238.989 59.08H253.389L230.949 124H218.709L201.189 71.08H205.629L188.109 124H175.749ZM279.782 125.44C275.382 125.44 271.502 124.68 268.142 123.16C264.862 121.56 262.302 119.4 260.462 116.68C258.622 113.88 257.702 110.6 257.702 106.84C257.702 103.32 258.462 100.16 259.982 97.36C261.582 94.56 264.022 92.2 267.302 90.28C270.582 88.36 274.702 87 279.662 86.2L302.222 82.48V93.16L282.302 96.64C278.702 97.28 276.062 98.44 274.382 100.12C272.702 101.72 271.862 103.8 271.862 106.36C271.862 108.84 272.782 110.88 274.622 112.48C276.542 114 278.982 114.76 281.942 114.76C285.622 114.76 288.822 113.96 291.542 112.36C294.342 110.76 296.502 108.64 298.022 106C299.542 103.28 300.302 100.28 300.302 97V80.32C300.302 77.12 299.102 74.52 296.702 72.52C294.382 70.44 291.262 69.4 287.342 69.4C283.742 69.4 280.582 70.36 277.862 72.28C275.222 74.12 273.262 76.52 271.982 79.48L260.702 73.84C261.902 70.64 263.862 67.84 266.582 65.44C269.302 62.96 272.462 61.04 276.062 59.68C279.742 58.32 283.622 57.64 287.702 57.64C292.822 57.64 297.342 58.6 301.262 60.52C305.262 62.44 308.342 65.12 310.502 68.56C312.742 71.92 313.862 75.84 313.862 80.32V124H300.902V112.24L303.662 112.6C302.142 115.24 300.182 117.52 297.782 119.44C295.462 121.36 292.782 122.84 289.742 123.88C286.782 124.92 283.462 125.44 279.782 125.44ZM329.717 124V59.08H342.677V71.8L341.117 70.12C342.717 66.04 345.277 62.96 348.797 60.88C352.317 58.72 356.397 57.64 361.037 57.64C365.837 57.64 370.077 58.68 373.757 60.76C377.437 62.84 380.317 65.72 382.397 69.4C384.477 73.08 385.517 77.32 385.517 82.12V124H372.077V85.72C372.077 82.44 371.477 79.68 370.277 77.44C369.077 75.12 367.357 73.36 365.117 72.16C362.957 70.88 360.477 70.24 357.677 70.24C354.877 70.24 352.357 70.88 350.117 72.16C347.957 73.36 346.277 75.12 345.077 77.44C343.877 79.76 343.277 82.52 343.277 85.72V124H329.717ZM403.509 66.64V60.04C406.149 59.4 408.189 58.24 409.629 56.56C411.069 54.8 411.949 52.68 412.269 50.2H405.909V34.6H419.709V44.8C419.709 50.64 418.349 55.48 415.629 59.32C412.909 63.08 408.869 65.52 403.509 66.64ZM463.404 125.44C456.764 125.44 450.924 123.8 445.884 120.52C440.924 117.24 437.444 112.84 435.444 107.32L445.884 102.4C447.644 106.08 450.044 109 453.084 111.16C456.204 113.32 459.644 114.4 463.404 114.4C466.604 114.4 469.204 113.68 471.204 112.24C473.204 110.8 474.204 108.84 474.204 106.36C474.204 104.76 473.764 103.48 472.884 102.52C472.004 101.48 470.884 100.64 469.524 100C468.244 99.36 466.924 98.88 465.564 98.56L455.364 95.68C449.764 94.08 445.564 91.68 442.764 88.48C440.044 85.2 438.684 81.4 438.684 77.08C438.684 73.16 439.684 69.76 441.684 66.88C443.684 63.92 446.444 61.64 449.964 60.04C453.484 58.44 457.444 57.64 461.844 57.64C467.764 57.64 473.044 59.12 477.684 62.08C482.324 64.96 485.604 69 487.524 74.2L477.084 79.12C475.804 76 473.764 73.52 470.964 71.68C468.244 69.84 465.164 68.92 461.724 68.92C458.764 68.92 456.404 69.64 454.644 71.08C452.884 72.44 452.004 74.24 452.004 76.48C452.004 78 452.404 79.28 453.204 80.32C454.004 81.28 455.044 82.08 456.324 82.72C457.604 83.28 458.924 83.76 460.284 84.16L470.844 87.28C476.204 88.8 480.324 91.2 483.204 94.48C486.084 97.68 487.524 101.52 487.524 106C487.524 109.84 486.484 113.24 484.404 116.2C482.404 119.08 479.604 121.36 476.004 123.04C472.404 124.64 468.204 125.44 463.404 125.44Z"/>
</mask>
<path d="M9.24 124V34.6H41.76C47.76 34.6 53.04 35.72 57.6 37.96C62.16 40.12 65.72 43.32 68.28 47.56C70.92 51.72 72.24 56.72 72.24 62.56C72.24 68.72 70.68 74 67.56 78.4C64.52 82.8 60.4 86 55.2 88L75.84 124H59.76L37.8 85L47.04 90.4H23.4V124H9.24ZM23.4 77.8H42C45.28 77.8 48.12 77.16 50.52 75.88C52.92 74.6 54.76 72.84 56.04 70.6C57.4 68.28 58.08 65.56 58.08 62.44C58.08 59.32 57.4 56.64 56.04 54.4C54.76 52.08 52.92 50.32 50.52 49.12C48.12 47.84 45.28 47.2 42 47.2H23.4V77.8ZM114.123 125.44C107.883 125.44 102.163 123.96 96.9628 121C91.8428 118.04 87.7628 114 84.7228 108.88C81.6828 103.76 80.1628 97.96 80.1628 91.48C80.1628 84.92 81.6828 79.12 84.7228 74.08C87.7628 68.96 91.8428 64.96 96.9628 62.08C102.083 59.12 107.803 57.64 114.123 57.64C120.523 57.64 126.243 59.12 131.283 62.08C136.403 64.96 140.443 68.96 143.403 74.08C146.443 79.12 147.963 84.92 147.963 91.48C147.963 98.04 146.443 103.88 143.403 109C140.363 114.12 136.283 118.16 131.163 121.12C126.043 124 120.363 125.44 114.123 125.44ZM114.123 112.84C117.963 112.84 121.363 111.92 124.323 110.08C127.283 108.24 129.603 105.72 131.283 102.52C133.043 99.24 133.923 95.56 133.923 91.48C133.923 87.4 133.043 83.76 131.283 80.56C129.603 77.36 127.283 74.84 124.323 73C121.363 71.16 117.963 70.24 114.123 70.24C110.363 70.24 106.963 71.16 103.923 73C100.963 74.84 98.6028 77.36 96.8428 80.56C95.1628 83.76 94.3228 87.4 94.3228 91.48C94.3228 95.56 95.1628 99.24 96.8428 102.52C98.6028 105.72 100.963 108.24 103.923 110.08C106.963 111.92 110.363 112.84 114.123 112.84ZM175.749 124L153.429 59.08H167.829L184.869 110.8H179.829L197.229 59.08H209.589L226.869 110.8H221.829L238.989 59.08H253.389L230.949 124H218.709L201.189 71.08H205.629L188.109 124H175.749ZM279.782 125.44C275.382 125.44 271.502 124.68 268.142 123.16C264.862 121.56 262.302 119.4 260.462 116.68C258.622 113.88 257.702 110.6 257.702 106.84C257.702 103.32 258.462 100.16 259.982 97.36C261.582 94.56 264.022 92.2 267.302 90.28C270.582 88.36 274.702 87 279.662 86.2L302.222 82.48V93.16L282.302 96.64C278.702 97.28 276.062 98.44 274.382 100.12C272.702 101.72 271.862 103.8 271.862 106.36C271.862 108.84 272.782 110.88 274.622 112.48C276.542 114 278.982 114.76 281.942 114.76C285.622 114.76 288.822 113.96 291.542 112.36C294.342 110.76 296.502 108.64 298.022 106C299.542 103.28 300.302 100.28 300.302 97V80.32C300.302 77.12 299.102 74.52 296.702 72.52C294.382 70.44 291.262 69.4 287.342 69.4C283.742 69.4 280.582 70.36 277.862 72.28C275.222 74.12 273.262 76.52 271.982 79.48L260.702 73.84C261.902 70.64 263.862 67.84 266.582 65.44C269.302 62.96 272.462 61.04 276.062 59.68C279.742 58.32 283.622 57.64 287.702 57.64C292.822 57.64 297.342 58.6 301.262 60.52C305.262 62.44 308.342 65.12 310.502 68.56C312.742 71.92 313.862 75.84 313.862 80.32V124H300.902V112.24L303.662 112.6C302.142 115.24 300.182 117.52 297.782 119.44C295.462 121.36 292.782 122.84 289.742 123.88C286.782 124.92 283.462 125.44 279.782 125.44ZM329.717 124V59.08H342.677V71.8L341.117 70.12C342.717 66.04 345.277 62.96 348.797 60.88C352.317 58.72 356.397 57.64 361.037 57.64C365.837 57.64 370.077 58.68 373.757 60.76C377.437 62.84 380.317 65.72 382.397 69.4C384.477 73.08 385.517 77.32 385.517 82.12V124H372.077V85.72C372.077 82.44 371.477 79.68 370.277 77.44C369.077 75.12 367.357 73.36 365.117 72.16C362.957 70.88 360.477 70.24 357.677 70.24C354.877 70.24 352.357 70.88 350.117 72.16C347.957 73.36 346.277 75.12 345.077 77.44C343.877 79.76 343.277 82.52 343.277 85.72V124H329.717ZM403.509 66.64V60.04C406.149 59.4 408.189 58.24 409.629 56.56C411.069 54.8 411.949 52.68 412.269 50.2H405.909V34.6H419.709V44.8C419.709 50.64 418.349 55.48 415.629 59.32C412.909 63.08 408.869 65.52 403.509 66.64ZM463.404 125.44C456.764 125.44 450.924 123.8 445.884 120.52C440.924 117.24 437.444 112.84 435.444 107.32L445.884 102.4C447.644 106.08 450.044 109 453.084 111.16C456.204 113.32 459.644 114.4 463.404 114.4C466.604 114.4 469.204 113.68 471.204 112.24C473.204 110.8 474.204 108.84 474.204 106.36C474.204 104.76 473.764 103.48 472.884 102.52C472.004 101.48 470.884 100.64 469.524 100C468.244 99.36 466.924 98.88 465.564 98.56L455.364 95.68C449.764 94.08 445.564 91.68 442.764 88.48C440.044 85.2 438.684 81.4 438.684 77.08C438.684 73.16 439.684 69.76 441.684 66.88C443.684 63.92 446.444 61.64 449.964 60.04C453.484 58.44 457.444 57.64 461.844 57.64C467.764 57.64 473.044 59.12 477.684 62.08C482.324 64.96 485.604 69 487.524 74.2L477.084 79.12C475.804 76 473.764 73.52 470.964 71.68C468.244 69.84 465.164 68.92 461.724 68.92C458.764 68.92 456.404 69.64 454.644 71.08C452.884 72.44 452.004 74.24 452.004 76.48C452.004 78 452.404 79.28 453.204 80.32C454.004 81.28 455.044 82.08 456.324 82.72C457.604 83.28 458.924 83.76 460.284 84.16L470.844 87.28C476.204 88.8 480.324 91.2 483.204 94.48C486.084 97.68 487.524 101.52 487.524 106C487.524 109.84 486.484 113.24 484.404 116.2C482.404 119.08 479.604 121.36 476.004 123.04C472.404 124.64 468.204 125.44 463.404 125.44Z" fill="#8BBEB2"/>
<path d="M9.24 124H8.24V125H9.24V124ZM9.24 34.6V33.6H8.24V34.6H9.24ZM57.6 37.96L57.1591 38.8576L57.1655 38.8607L57.1719 38.8637L57.6 37.96ZM68.28 47.56L67.4239 48.0769L67.4297 48.0864L67.4357 48.0958L68.28 47.56ZM67.56 78.4L66.7442 77.8215L66.7373 77.8316L67.56 78.4ZM55.2 88L54.841 87.0667L53.7523 87.4854L54.3325 88.4974L55.2 88ZM75.84 124V125H77.566L76.7075 123.503L75.84 124ZM59.76 124L58.8886 124.491L59.1754 125H59.76V124ZM37.8 85L38.3046 84.1366L35.1174 82.274L36.9286 85.4906L37.8 85ZM47.04 90.4V91.4H50.733L47.5446 89.5366L47.04 90.4ZM23.4 90.4V89.4H22.4V90.4H23.4ZM23.4 124V125H24.4V124H23.4ZM23.4 77.8H22.4V78.8H23.4V77.8ZM56.04 70.6L55.1773 70.0942L55.1718 70.1039L56.04 70.6ZM56.04 54.4L55.1644 54.8831L55.1744 54.9012L55.1852 54.919L56.04 54.4ZM50.52 49.12L50.0494 50.0024L50.061 50.0085L50.0728 50.0144L50.52 49.12ZM23.4 47.2V46.2H22.4V47.2H23.4ZM9.24 124H10.24V34.6H9.24H8.24V124H9.24ZM9.24 34.6V35.6H41.76V34.6V33.6H9.24V34.6ZM41.76 34.6V35.6C47.6346 35.6 52.759 36.6961 57.1591 38.8576L57.6 37.96L58.0409 37.0624C53.321 34.7439 47.8854 33.6 41.76 33.6V34.6ZM57.6 37.96L57.1719 38.8637C61.5579 40.9413 64.9675 44.0084 67.4239 48.0769L68.28 47.56L69.1361 47.0431C66.4725 42.6316 62.7621 39.2987 58.0281 37.0563L57.6 37.96ZM68.28 47.56L67.4357 48.0958C69.9565 52.068 71.24 56.8741 71.24 62.56H72.24H73.24C73.24 56.5659 71.8836 51.372 69.1243 47.0242L68.28 47.56ZM72.24 62.56H71.24C71.24 68.5433 69.7279 73.6139 66.7443 77.8216L67.56 78.4L68.3757 78.9784C71.6321 74.3861 73.24 68.8967 73.24 62.56H72.24ZM67.56 78.4L66.7373 77.8316C63.8166 82.0589 59.8616 85.1357 54.841 87.0667L55.2 88L55.559 88.9333C60.9384 86.8643 65.2234 83.5411 68.3827 78.9684L67.56 78.4ZM55.2 88L54.3325 88.4974L74.9725 124.497L75.84 124L76.7075 123.503L56.0675 87.5026L55.2 88ZM75.84 124V123H59.76V124V125H75.84V124ZM59.76 124L60.6314 123.509L38.6714 84.5094L37.8 85L36.9286 85.4906L58.8886 124.491L59.76 124ZM37.8 85L37.2954 85.8634L46.5354 91.2634L47.04 90.4L47.5446 89.5366L38.3046 84.1366L37.8 85ZM47.04 90.4V89.4H23.4V90.4V91.4H47.04V90.4ZM23.4 90.4H22.4V124H23.4H24.4V90.4H23.4ZM23.4 124V123H9.24V124V125H23.4V124ZM23.4 77.8V78.8H42V77.8V76.8H23.4V77.8ZM42 77.8V78.8C45.4106 78.8 48.4188 78.134 50.9906 76.7624L50.52 75.88L50.0494 74.9976C47.8212 76.186 45.1494 76.8 42 76.8V77.8ZM50.52 75.88L50.9906 76.7624C53.5474 75.3987 55.5296 73.5088 56.9082 71.0961L56.04 70.6L55.1718 70.1039C53.9904 72.1712 52.2926 73.8013 50.0494 74.9976L50.52 75.88ZM56.04 70.6L56.9027 71.1057C58.3661 68.6092 59.08 65.7089 59.08 62.44H58.08H57.08C57.08 65.4111 56.4339 67.9507 55.1773 70.0943L56.04 70.6ZM58.08 62.44H59.08C59.08 59.1721 58.3665 56.305 56.8948 53.881L56.04 54.4L55.1852 54.919C56.4335 56.975 57.08 59.4679 57.08 62.44H58.08ZM56.04 54.4L56.9156 53.9169C55.5364 51.4172 53.5459 49.5149 50.9672 48.2256L50.52 49.12L50.0728 50.0144C52.2941 51.1251 53.9836 52.7428 55.1644 54.8831L56.04 54.4ZM50.52 49.12L50.9906 48.2376C48.4188 46.866 45.4106 46.2 42 46.2V47.2V48.2C45.1494 48.2 47.8212 48.814 50.0494 50.0024L50.52 49.12ZM42 47.2V46.2H23.4V47.2V48.2H42V47.2ZM23.4 47.2H22.4V77.8H23.4H24.4V47.2H23.4ZM96.9628 121L96.4623 121.866L96.4681 121.869L96.9628 121ZM84.7228 108.88L83.863 109.391L83.863 109.391L84.7228 108.88ZM84.7228 74.08L85.5791 74.5965L85.5827 74.5905L84.7228 74.08ZM96.9628 62.08L97.4531 62.9516L97.4633 62.9457L96.9628 62.08ZM131.283 62.08L130.776 62.9423L130.784 62.947L130.793 62.9516L131.283 62.08ZM143.403 74.08L142.537 74.5805L142.542 74.5885L142.547 74.5965L143.403 74.08ZM143.403 109L144.263 109.511L144.263 109.511L143.403 109ZM131.163 121.12L131.653 121.992L131.663 121.986L131.163 121.12ZM124.323 110.08L124.851 110.929L124.851 110.929L124.323 110.08ZM131.283 102.52L130.402 102.047L130.397 102.055L131.283 102.52ZM131.283 80.56L130.397 81.0248L130.402 81.0334L130.407 81.0419L131.283 80.56ZM103.923 73L103.405 72.1444L103.395 72.1507L103.923 73ZM96.8428 80.56L95.9666 80.0781L95.9619 80.0866L95.9574 80.0952L96.8428 80.56ZM96.8428 102.52L95.9528 102.976L95.9595 102.989L95.9666 103.002L96.8428 102.52ZM103.923 110.08L103.395 110.929L103.405 110.935L103.923 110.08ZM114.123 125.44V124.44C108.049 124.44 102.5 123.001 97.4575 120.131L96.9628 121L96.4681 121.869C101.825 124.919 107.717 126.44 114.123 126.44V125.44ZM96.9628 121L97.4633 120.134C92.4926 117.261 88.5359 113.343 85.5827 108.369L84.7228 108.88L83.863 109.391C86.9897 114.657 91.193 118.819 96.4623 121.866L96.9628 121ZM84.7228 108.88L85.5827 108.369C82.6424 103.417 81.1628 97.7967 81.1628 91.48H80.1628H79.1628C79.1628 98.1233 80.7232 104.103 83.863 109.391L84.7228 108.88ZM80.1628 91.48H81.1628C81.1628 85.0806 82.6436 79.4632 85.5791 74.5965L84.7228 74.08L83.8665 73.5635C80.722 78.7768 79.1628 84.7594 79.1628 91.48H80.1628ZM84.7228 74.08L85.5827 74.5905C88.5345 69.619 92.4879 65.7445 97.4531 62.9516L96.9628 62.08L96.4726 61.2084C91.1977 64.1755 86.9911 68.301 83.863 73.5695L84.7228 74.08ZM96.9628 62.08L97.4633 62.9457C102.421 60.0797 107.966 58.64 114.123 58.64V57.64V56.64C107.64 56.64 101.745 58.1603 96.4623 61.2143L96.9628 62.08ZM114.123 57.64V58.64C120.362 58.64 125.904 60.0809 130.776 62.9423L131.283 62.08L131.789 61.2177C126.581 58.1591 120.683 56.64 114.123 56.64V57.64ZM131.283 62.08L130.793 62.9516C135.755 65.7431 139.666 69.6145 142.537 74.5805L143.403 74.08L144.269 73.5795C141.22 68.3055 137.05 64.1769 131.773 61.2084L131.283 62.08ZM143.403 74.08L142.547 74.5965C145.482 79.4632 146.963 85.0806 146.963 91.48H147.963H148.963C148.963 84.7594 147.404 78.7768 144.259 73.5635L143.403 74.08ZM147.963 91.48H146.963C146.963 97.8791 145.482 103.539 142.543 108.489L143.403 109L144.263 109.511C147.404 104.221 148.963 98.2009 148.963 91.48H147.963ZM143.403 109L142.543 108.489C139.59 113.463 135.633 117.381 130.662 120.254L131.163 121.12L131.663 121.986C136.933 118.939 141.136 114.777 144.263 109.511L143.403 109ZM131.163 121.12L130.673 120.248C125.712 123.039 120.202 124.44 114.123 124.44V125.44V126.44C120.523 126.44 126.374 124.961 131.653 121.992L131.163 121.12ZM114.123 112.84V113.84C118.13 113.84 121.716 112.878 124.851 110.929L124.323 110.08L123.795 109.231C121.009 110.962 117.796 111.84 114.123 111.84V112.84ZM124.323 110.08L124.851 110.929C127.968 108.992 130.409 106.336 132.168 102.985L131.283 102.52L130.397 102.055C128.797 105.104 126.598 107.488 123.795 109.231L124.323 110.08ZM131.283 102.52L132.164 102.993C134.009 99.5538 134.923 95.7088 134.923 91.48H133.923H132.923C132.923 95.4112 132.076 98.9262 130.402 102.047L131.283 102.52ZM133.923 91.48H134.923C134.923 87.2516 134.009 83.4424 132.159 80.0781L131.283 80.56L130.407 81.0419C132.076 84.0776 132.923 87.5484 132.923 91.48H133.923ZM131.283 80.56L132.168 80.0952C130.409 76.7436 127.968 74.0883 124.851 72.1507L124.323 73L123.795 73.8493C126.598 75.5917 128.797 77.9764 130.397 81.0248L131.283 80.56ZM124.323 73L124.851 72.1507C121.716 70.2023 118.13 69.24 114.123 69.24V70.24V71.24C117.796 71.24 121.009 72.1177 123.795 73.8493L124.323 73ZM114.123 70.24V69.24C110.191 69.24 106.61 70.2044 103.405 72.1445L103.923 73L104.441 73.8555C107.315 72.1156 110.534 71.24 114.123 71.24V70.24ZM103.923 73L103.395 72.1507C100.282 74.0857 97.8052 76.7352 95.9666 80.0781L96.8428 80.56L97.719 81.0419C99.4005 77.9847 101.644 75.5943 104.451 73.8493L103.923 73ZM96.8428 80.56L95.9574 80.0952C94.1929 83.4561 93.3228 87.2592 93.3228 91.48H94.3228H95.3228C95.3228 87.5408 96.1327 84.0639 97.7282 81.0248L96.8428 80.56ZM94.3228 91.48H93.3228C93.3228 95.7013 94.193 99.5402 95.9528 102.976L96.8428 102.52L97.7329 102.064C96.1326 98.9398 95.3228 95.4187 95.3228 91.48H94.3228ZM96.8428 102.52L95.9666 103.002C97.8052 106.345 100.282 108.994 103.395 110.929L103.923 110.08L104.451 109.231C101.644 107.486 99.4005 105.095 97.719 102.038L96.8428 102.52ZM103.923 110.08L103.405 110.935C106.61 112.876 110.191 113.84 114.123 113.84V112.84V111.84C110.534 111.84 107.315 110.964 104.441 109.224L103.923 110.08ZM175.749 124L174.804 124.325L175.036 125H175.749V124ZM153.429 59.08V58.08H152.028L152.484 59.4051L153.429 59.08ZM167.829 59.08L168.779 58.7671L168.553 58.08H167.829V59.08ZM184.869 110.8V111.8H186.252L185.819 110.487L184.869 110.8ZM179.829 110.8L178.882 110.481L178.438 111.8H179.829V110.8ZM197.229 59.08V58.08H196.511L196.282 58.7611L197.229 59.08ZM209.589 59.08L210.538 58.7631L210.31 58.08H209.589V59.08ZM226.869 110.8V111.8H228.258L227.818 110.483L226.869 110.8ZM221.829 110.8L220.88 110.485L220.444 111.8H221.829V110.8ZM238.989 59.08V58.08H238.268L238.04 58.7651L238.989 59.08ZM253.389 59.08L254.335 59.4067L254.793 58.08H253.389V59.08ZM230.949 124V125H231.662L231.895 124.327L230.949 124ZM218.709 124L217.76 124.314L217.987 125H218.709V124ZM201.189 71.08V70.08H199.805L200.24 71.3943L201.189 71.08ZM205.629 71.08L206.579 71.3943L207.014 70.08H205.629V71.08ZM188.109 124V125H188.832L189.059 124.314L188.109 124ZM175.749 124L176.695 123.675L154.375 58.7549L153.429 59.08L152.484 59.4051L174.804 124.325L175.749 124ZM153.429 59.08V60.08H167.829V59.08V58.08H153.429V59.08ZM167.829 59.08L166.88 59.3929L183.92 111.113L184.869 110.8L185.819 110.487L168.779 58.7671L167.829 59.08ZM184.869 110.8V109.8H179.829V110.8V111.8H184.869V110.8ZM179.829 110.8L180.777 111.119L198.177 59.3989L197.229 59.08L196.282 58.7611L178.882 110.481L179.829 110.8ZM197.229 59.08V60.08H209.589V59.08V58.08H197.229V59.08ZM209.589 59.08L208.641 59.3969L225.921 111.117L226.869 110.8L227.818 110.483L210.538 58.7631L209.589 59.08ZM226.869 110.8V109.8H221.829V110.8V111.8H226.869V110.8ZM221.829 110.8L222.779 111.115L239.939 59.3949L238.989 59.08L238.04 58.7651L220.88 110.485L221.829 110.8ZM238.989 59.08V60.08H253.389V59.08V58.08H238.989V59.08ZM253.389 59.08L252.444 58.7533L230.004 123.673L230.949 124L231.895 124.327L254.335 59.4067L253.389 59.08ZM230.949 124V123H218.709V124V125H230.949V124ZM218.709 124L219.659 123.686L202.139 70.7657L201.189 71.08L200.24 71.3943L217.76 124.314L218.709 124ZM201.189 71.08V72.08H205.629V71.08V70.08H201.189V71.08ZM205.629 71.08L204.68 70.7657L187.16 123.686L188.109 124L189.059 124.314L206.579 71.3943L205.629 71.08ZM188.109 124V123H175.749V124V125H188.109V124ZM268.142 123.16L267.703 124.059L267.716 124.065L267.73 124.071L268.142 123.16ZM260.462 116.68L259.626 117.229L259.634 117.24L260.462 116.68ZM259.982 97.36L259.114 96.8639L259.108 96.8733L259.103 96.8829L259.982 97.36ZM267.302 90.28L266.797 89.417L266.797 89.417L267.302 90.28ZM279.662 86.2L279.821 87.1872L279.825 87.1867L279.662 86.2ZM302.222 82.48H303.222V81.3016L302.059 81.4933L302.222 82.48ZM302.222 93.16L302.394 94.1451L303.222 94.0004V93.16H302.222ZM282.302 96.64L282.13 95.6549L282.127 95.6554L282.302 96.64ZM274.382 100.12L275.072 100.844L275.08 100.836L275.089 100.827L274.382 100.12ZM274.622 112.48L273.966 113.235L273.983 113.25L274.001 113.264L274.622 112.48ZM291.542 112.36L291.046 111.492L291.035 111.498L291.542 112.36ZM298.022 106L298.889 106.499L298.895 106.488L298.022 106ZM296.702 72.52L296.034 73.2646L296.048 73.2766L296.062 73.2882L296.702 72.52ZM277.862 72.28L278.434 73.1004L278.439 73.097L277.862 72.28ZM271.982 79.48L271.535 80.3744L272.48 80.8472L272.9 79.8769L271.982 79.48ZM260.702 73.84L259.766 73.4889L259.449 74.3318L260.255 74.7344L260.702 73.84ZM266.582 65.44L267.243 66.1898L267.25 66.1844L267.256 66.179L266.582 65.44ZM276.062 59.68L275.715 58.742L275.708 58.7445L276.062 59.68ZM301.262 60.52L300.822 61.4181L300.829 61.4215L301.262 60.52ZM310.502 68.56L309.655 69.0918L309.662 69.1033L309.67 69.1147L310.502 68.56ZM313.862 124V125H314.862V124H313.862ZM300.902 124H299.902V125H300.902V124ZM300.902 112.24L301.031 111.248L299.902 111.101V112.24H300.902ZM303.662 112.6L304.528 113.099L305.275 111.802L303.791 111.608L303.662 112.6ZM297.782 119.44L297.157 118.659L297.151 118.664L297.144 118.67L297.782 119.44ZM289.742 123.88L289.418 122.934L289.41 122.937L289.742 123.88ZM279.782 125.44V124.44C275.497 124.44 271.762 123.7 268.554 122.249L268.142 123.16L267.73 124.071C271.242 125.66 275.267 126.44 279.782 126.44V125.44ZM268.142 123.16L268.58 122.261C265.44 120.729 263.021 118.679 261.29 116.12L260.462 116.68L259.634 117.24C261.582 120.121 264.284 122.391 267.703 124.059L268.142 123.16ZM260.462 116.68L261.298 116.131C259.578 113.513 258.702 110.429 258.702 106.84H257.702H256.702C256.702 110.771 257.666 114.247 259.626 117.229L260.462 116.68ZM257.702 106.84H258.702C258.702 103.469 259.428 100.476 260.861 97.8371L259.982 97.36L259.103 96.8829C257.495 99.8443 256.702 103.171 256.702 106.84H257.702ZM259.982 97.36L260.85 97.8561C262.349 95.2332 264.651 92.9905 267.807 91.143L267.302 90.28L266.797 89.417C263.393 91.4095 260.815 93.8868 259.114 96.8639L259.982 97.36ZM267.302 90.28L267.807 91.143C270.952 89.302 274.946 87.9735 279.821 87.1872L279.662 86.2L279.503 85.2128C274.458 86.0264 270.212 87.418 266.797 89.417L267.302 90.28ZM279.662 86.2L279.825 87.1867L302.385 83.4667L302.222 82.48L302.059 81.4933L279.499 85.2133L279.662 86.2ZM302.222 82.48H301.222V93.16H302.222H303.222V82.48H302.222ZM302.222 93.16L302.05 92.1749L282.13 95.6549L282.302 96.64L282.474 97.6251L302.394 94.1451L302.222 93.16ZM282.302 96.64L282.127 95.6554C278.427 96.3132 275.558 97.5293 273.675 99.4129L274.382 100.12L275.089 100.827C276.565 99.3507 278.977 98.2468 282.477 97.6246L282.302 96.64ZM274.382 100.12L273.692 99.3959C271.792 101.205 270.862 103.558 270.862 106.36H271.862H272.862C272.862 104.042 273.611 102.235 275.072 100.844L274.382 100.12ZM271.862 106.36H270.862C270.862 109.124 271.903 111.441 273.966 113.235L274.622 112.48L275.278 111.725C273.661 110.319 272.862 108.556 272.862 106.36H271.862ZM274.622 112.48L274.001 113.264C276.132 114.951 278.805 115.76 281.942 115.76V114.76V113.76C279.159 113.76 276.951 113.049 275.243 111.696L274.622 112.48ZM281.942 114.76V115.76C285.77 115.76 289.151 114.926 292.049 113.222L291.542 112.36L291.035 111.498C288.492 112.994 285.474 113.76 281.942 113.76V114.76ZM291.542 112.36L292.038 113.228C294.983 111.546 297.275 109.302 298.889 106.499L298.022 106L297.155 105.501C295.729 107.978 293.701 109.974 291.046 111.492L291.542 112.36ZM298.022 106L298.895 106.488C300.503 103.611 301.302 100.441 301.302 97H300.302H299.302C299.302 100.119 298.581 102.949 297.149 105.512L298.022 106ZM300.302 97H301.302V80.32H300.302H299.302V97H300.302ZM300.302 80.32H301.302C301.302 76.8315 299.976 73.947 297.342 71.7518L296.702 72.52L296.062 73.2882C298.227 75.093 299.302 77.4085 299.302 80.32H300.302ZM296.702 72.52L297.369 71.7754C294.822 69.4917 291.442 68.4 287.342 68.4V69.4V70.4C291.081 70.4 293.942 71.3883 296.034 73.2646L296.702 72.52ZM287.342 69.4V68.4C283.553 68.4 280.188 69.4141 277.285 71.463L277.862 72.28L278.439 73.097C280.976 71.3059 283.931 70.4 287.342 70.4V69.4ZM277.862 72.28L277.29 71.4596C274.497 73.4061 272.418 75.9529 271.064 79.0831L271.982 79.48L272.9 79.8769C274.106 77.0871 275.946 74.8339 278.434 73.1004L277.862 72.28ZM271.982 79.48L272.429 78.5856L261.149 72.9456L260.702 73.84L260.255 74.7344L271.535 80.3744L271.982 79.48ZM260.702 73.84L261.638 74.1911C262.777 71.1539 264.639 68.4883 267.243 66.1898L266.582 65.44L265.92 64.6902C263.085 67.1917 261.027 70.1261 259.766 73.4889L260.702 73.84ZM266.582 65.44L267.256 66.179C269.878 63.788 272.928 61.9329 276.415 60.6155L276.062 59.68L275.708 58.7445C271.996 60.1471 268.726 62.132 265.908 64.701L266.582 65.44ZM276.062 59.68L276.409 60.618C279.973 59.3006 283.735 58.64 287.702 58.64V57.64V56.64C283.508 56.64 279.511 57.3394 275.715 58.742L276.062 59.68ZM287.702 57.64V58.64C292.696 58.64 297.061 59.5758 300.822 61.4181L301.262 60.52L301.702 59.6219C297.623 57.6242 292.948 56.64 287.702 56.64V57.64ZM301.262 60.52L300.829 61.4215C304.675 63.2677 307.605 65.8263 309.655 69.0918L310.502 68.56L311.349 68.0282C309.079 64.4137 305.848 61.6123 301.695 59.6185L301.262 60.52ZM310.502 68.56L309.67 69.1147C311.788 72.2927 312.862 76.015 312.862 80.32H313.862H314.862C314.862 75.665 313.695 71.5473 311.334 68.0053L310.502 68.56ZM313.862 80.32H312.862V124H313.862H314.862V80.32H313.862ZM313.862 124V123H300.902V124V125H313.862V124ZM300.902 124H301.902V112.24H300.902H299.902V124H300.902ZM300.902 112.24L300.773 113.232L303.533 113.592L303.662 112.6L303.791 111.608L301.031 111.248L300.902 112.24ZM303.662 112.6L302.795 112.101C301.338 114.632 299.461 116.816 297.157 118.659L297.782 119.44L298.407 120.221C300.903 118.224 302.946 115.848 304.528 113.099L303.662 112.6ZM297.782 119.44L297.144 118.67C294.924 120.507 292.352 121.93 289.418 122.934L289.742 123.88L290.066 124.826C293.212 123.75 296 122.213 298.419 120.21L297.782 119.44ZM289.742 123.88L289.41 122.937C286.574 123.933 283.368 124.44 279.782 124.44V125.44V126.44C283.556 126.44 286.99 125.907 290.073 124.823L289.742 123.88ZM329.717 124H328.717V125H329.717V124ZM329.717 59.08V58.08H328.717V59.08H329.717ZM342.677 59.08H343.677V58.08H342.677V59.08ZM342.677 71.8L341.944 72.4804L343.677 74.3465V71.8H342.677ZM341.117 70.12L340.186 69.7549L339.956 70.3399L340.384 70.8004L341.117 70.12ZM348.797 60.88L349.306 61.7409L349.313 61.7367L349.32 61.7323L348.797 60.88ZM373.757 60.76L373.265 61.6306L373.265 61.6306L373.757 60.76ZM382.397 69.4L381.526 69.8921L381.526 69.8921L382.397 69.4ZM385.517 124V125H386.517V124H385.517ZM372.077 124H371.077V125H372.077V124ZM370.277 77.44L369.389 77.8994L369.392 77.9058L369.395 77.9122L370.277 77.44ZM365.117 72.16L364.607 73.0203L364.626 73.0313L364.645 73.0415L365.117 72.16ZM350.117 72.16L350.603 73.0342L350.613 73.0282L350.117 72.16ZM345.077 77.44L345.965 77.8994L345.965 77.8994L345.077 77.44ZM343.277 124V125H344.277V124H343.277ZM329.717 124H330.717V59.08H329.717H328.717V124H329.717ZM329.717 59.08V60.08H342.677V59.08V58.08H329.717V59.08ZM342.677 59.08H341.677V71.8H342.677H343.677V59.08H342.677ZM342.677 71.8L343.41 71.1195L341.85 69.4395L341.117 70.12L340.384 70.8004L341.944 72.4804L342.677 71.8ZM341.117 70.12L342.048 70.4851C343.573 66.5969 345.992 63.699 349.306 61.7409L348.797 60.88L348.288 60.0191C344.562 62.221 341.861 65.4831 340.186 69.7549L341.117 70.12ZM348.797 60.88L349.32 61.7323C352.664 59.6804 356.558 58.64 361.037 58.64V57.64V56.64C356.236 56.64 351.97 57.7596 348.274 60.0277L348.797 60.88ZM361.037 57.64V58.64C365.688 58.64 369.754 59.6464 373.265 61.6306L373.757 60.76L374.249 59.8894C370.399 57.7136 365.986 56.64 361.037 56.64V57.64ZM373.757 60.76L373.265 61.6306C376.787 63.6211 379.536 66.3703 381.526 69.8921L382.397 69.4L383.267 68.9079C381.098 65.0697 378.087 62.0589 374.249 59.8894L373.757 60.76ZM382.397 69.4L381.526 69.8921C383.511 73.4025 384.517 77.4687 384.517 82.12H385.517H386.517C386.517 77.1713 385.443 72.7575 383.267 68.9079L382.397 69.4ZM385.517 82.12H384.517V124H385.517H386.517V82.12H385.517ZM385.517 124V123H372.077V124V125H385.517V124ZM372.077 124H373.077V85.72H372.077H371.077V124H372.077ZM372.077 85.72H373.077C373.077 82.3218 372.456 79.3891 371.158 76.9678L370.277 77.44L369.395 77.9122C370.498 79.9708 371.077 82.5582 371.077 85.72H372.077ZM370.277 77.44L371.165 76.9806C369.875 74.4864 368.012 72.5767 365.589 71.2785L365.117 72.16L364.645 73.0415C366.701 74.1433 368.279 75.7536 369.389 77.8994L370.277 77.44ZM365.117 72.16L365.627 71.2997C363.295 69.918 360.635 69.24 357.677 69.24V70.24V71.24C360.319 71.24 362.619 71.842 364.607 73.0203L365.117 72.16ZM357.677 70.24V69.24C354.718 69.24 352.025 69.9181 349.621 71.2918L350.117 72.16L350.613 73.0282C352.689 71.8419 355.036 71.24 357.677 71.24V70.24ZM350.117 72.16L349.631 71.2858C347.289 72.587 345.474 74.4962 344.189 76.9806L345.077 77.44L345.965 77.8994C347.08 75.7438 348.625 74.133 350.603 73.0342L350.117 72.16ZM345.077 77.44L344.189 76.9806C342.9 79.4711 342.277 82.3956 342.277 85.72H343.277H344.277C344.277 82.6444 344.853 80.0489 345.965 77.8994L345.077 77.44ZM343.277 85.72H342.277V124H343.277H344.277V85.72H343.277ZM343.277 124V123H329.717V124V125H343.277V124ZM403.509 66.64H402.509V67.8706L403.714 67.6189L403.509 66.64ZM403.509 60.04L403.274 59.0681L402.509 59.2535V60.04H403.509ZM409.629 56.56L410.389 57.2108L410.396 57.2021L410.403 57.1932L409.629 56.56ZM412.269 50.2L413.261 50.328L413.407 49.2H412.269V50.2ZM405.909 50.2H404.909V51.2H405.909V50.2ZM405.909 34.6V33.6H404.909V34.6H405.909ZM419.709 34.6H420.709V33.6H419.709V34.6ZM415.629 59.32L416.44 59.9061L416.445 59.898L415.629 59.32ZM403.509 66.64H404.509V60.04H403.509H402.509V66.64H403.509ZM403.509 60.04L403.745 61.0118C406.542 60.3339 408.784 59.0834 410.389 57.2108L409.629 56.56L408.87 55.9092C407.595 57.3966 405.757 58.4661 403.274 59.0681L403.509 60.04ZM409.629 56.56L410.403 57.1932C411.973 55.2743 412.92 52.9743 413.261 50.328L412.269 50.2L411.278 50.072C410.979 52.3857 410.165 54.3257 408.855 55.9268L409.629 56.56ZM412.269 50.2V49.2H405.909V50.2V51.2H412.269V50.2ZM405.909 50.2H406.909V34.6H405.909H404.909V50.2H405.909ZM405.909 34.6V35.6H419.709V34.6V33.6H405.909V34.6ZM419.709 34.6H418.709V44.8H419.709H420.709V34.6H419.709ZM419.709 44.8H418.709C418.709 50.4834 417.387 55.1079 414.813 58.742L415.629 59.32L416.445 59.898C419.311 55.8521 420.709 50.7966 420.709 44.8H419.709ZM415.629 59.32L414.819 58.7339C412.271 62.2567 408.468 64.5824 403.305 65.6611L403.509 66.64L403.714 67.6189C409.271 66.4576 413.548 63.9033 416.44 59.9061L415.629 59.32ZM445.884 120.52L445.333 121.354L445.339 121.358L445.884 120.52ZM435.444 107.32L435.018 106.415L434.194 106.804L434.504 107.661L435.444 107.32ZM445.884 102.4L446.787 101.969L446.358 101.072L445.458 101.495L445.884 102.4ZM453.084 111.16L452.505 111.975L452.515 111.982L453.084 111.16ZM471.204 112.24L471.789 113.052L471.789 113.052L471.204 112.24ZM472.884 102.52L472.121 103.166L472.134 103.181L472.147 103.196L472.884 102.52ZM469.524 100L469.077 100.894L469.088 100.9L469.099 100.905L469.524 100ZM465.564 98.56L465.293 99.5224L465.314 99.5284L465.335 99.5334L465.564 98.56ZM455.364 95.68L455.09 96.6415L455.093 96.6424L455.364 95.68ZM442.764 88.48L441.995 89.1183L442.003 89.1285L442.012 89.1385L442.764 88.48ZM441.684 66.88L442.506 67.4504L442.513 67.4399L441.684 66.88ZM449.964 60.04L449.551 59.1296L449.551 59.1296L449.964 60.04ZM477.684 62.08L477.147 62.9231L477.157 62.9296L477.684 62.08ZM487.524 74.2L487.951 75.1046L488.78 74.7137L488.462 73.8536L487.524 74.2ZM477.084 79.12L476.159 79.4996L476.559 80.4732L477.511 80.0246L477.084 79.12ZM470.964 71.68L470.404 72.5084L470.415 72.5157L470.964 71.68ZM454.644 71.08L455.256 71.8713L455.267 71.8628L455.278 71.854L454.644 71.08ZM453.204 80.32L452.412 80.9297L452.424 80.9452L452.436 80.9602L453.204 80.32ZM456.324 82.72L455.877 83.6144L455.9 83.6259L455.924 83.6362L456.324 82.72ZM460.284 84.16L460.568 83.201L460.567 83.2006L460.284 84.16ZM470.844 87.28L470.561 88.2391L470.572 88.2421L470.844 87.28ZM483.204 94.48L482.453 95.1399L482.461 95.149L483.204 94.48ZM484.404 116.2L483.586 115.625L483.583 115.63L484.404 116.2ZM476.004 123.04L476.411 123.954L476.419 123.95L476.427 123.946L476.004 123.04ZM463.404 125.44V124.44C456.937 124.44 451.291 122.845 446.43 119.682L445.884 120.52L445.339 121.358C450.558 124.755 456.592 126.44 463.404 126.44V125.44ZM445.884 120.52L446.436 119.686C441.653 116.523 438.31 112.295 436.385 106.979L435.444 107.32L434.504 107.661C436.578 113.385 440.196 117.957 445.333 121.354L445.884 120.52ZM435.444 107.32L435.871 108.225L446.311 103.305L445.884 102.4L445.458 101.495L435.018 106.415L435.444 107.32ZM445.884 102.4L444.982 102.831C446.808 106.65 449.314 109.708 452.505 111.975L453.084 111.16L453.664 110.345C450.775 108.292 448.48 105.51 446.787 101.969L445.884 102.4ZM453.084 111.16L452.515 111.982C455.801 114.257 459.439 115.4 463.404 115.4V114.4V113.4C459.85 113.4 456.608 112.383 453.654 110.338L453.084 111.16ZM463.404 114.4V115.4C466.752 115.4 469.574 114.646 471.789 113.052L471.204 112.24L470.62 111.428C468.835 112.714 466.457 113.4 463.404 113.4V114.4ZM471.204 112.24L471.789 113.052C474.052 111.422 475.204 109.159 475.204 106.36H474.204H473.204C473.204 108.521 472.357 110.178 470.62 111.428L471.204 112.24ZM474.204 106.36H475.204C475.204 104.57 474.707 103.029 473.622 101.844L472.884 102.52L472.147 103.196C472.822 103.931 473.204 104.95 473.204 106.36H474.204ZM472.884 102.52L473.648 101.874C472.666 100.714 471.426 99.7899 469.95 99.0952L469.524 100L469.099 100.905C470.342 101.49 471.343 102.246 472.121 103.166L472.884 102.52ZM469.524 100L469.972 99.1056C468.624 98.4317 467.231 97.9248 465.793 97.5866L465.564 98.56L465.335 99.5334C466.618 99.8352 467.865 100.288 469.077 100.894L469.524 100ZM465.564 98.56L465.836 97.5976L455.636 94.7176L455.364 95.68L455.093 96.6424L465.293 99.5224L465.564 98.56ZM455.364 95.68L455.639 94.7185C450.158 93.1524 446.151 90.8322 443.517 87.8215L442.764 88.48L442.012 89.1385C444.977 92.5278 449.371 95.0076 455.09 96.6415L455.364 95.68ZM442.764 88.48L443.534 87.8417C440.965 84.7438 439.684 81.1704 439.684 77.08H438.684H437.684C437.684 81.6296 439.124 85.6562 441.995 89.1183L442.764 88.48ZM438.684 77.08H439.684C439.684 73.3388 440.636 70.1435 442.506 67.4504L441.684 66.88L440.863 66.3096C438.733 69.3765 437.684 72.9811 437.684 77.08H438.684ZM441.684 66.88L442.513 67.4399C444.401 64.6453 447.012 62.4805 450.378 60.9504L449.964 60.04L449.551 59.1296C445.877 60.7994 442.968 63.1947 440.856 66.3201L441.684 66.88ZM449.964 60.04L450.378 60.9504C453.751 59.4171 457.567 58.64 461.844 58.64V57.64V56.64C457.321 56.64 453.217 57.4629 449.551 59.1296L449.964 60.04ZM461.844 57.64V58.64C467.589 58.64 472.679 60.0733 477.147 62.9231L477.684 62.08L478.222 61.2369C473.409 58.1666 467.94 56.64 461.844 56.64V57.64ZM477.684 62.08L477.157 62.9296C481.605 65.6904 484.742 69.5518 486.586 74.5464L487.524 74.2L488.462 73.8536C486.467 68.4482 483.044 64.2296 478.212 61.2304L477.684 62.08ZM487.524 74.2L487.098 73.2954L476.658 78.2154L477.084 79.12L477.511 80.0246L487.951 75.1046L487.524 74.2ZM477.084 79.12L478.01 78.7404C476.654 75.4353 474.483 72.7957 471.514 70.8443L470.964 71.68L470.415 72.5157C473.046 74.2442 474.955 76.5647 476.159 79.4996L477.084 79.12ZM470.964 71.68L471.525 70.8517C468.631 68.8943 465.354 67.92 461.724 67.92V68.92V69.92C464.975 69.92 467.858 70.7857 470.404 72.5083L470.964 71.68ZM461.724 68.92V67.92C458.604 67.92 455.998 68.6807 454.011 70.306L454.644 71.08L455.278 71.854C456.811 70.5993 458.925 69.92 461.724 69.92V68.92ZM454.644 71.08L454.033 70.2887C452.026 71.8396 451.004 73.9329 451.004 76.48H452.004H453.004C453.004 74.5471 453.743 73.0403 455.256 71.8713L454.644 71.08ZM452.004 76.48H451.004C451.004 78.1841 451.457 79.6881 452.412 80.9297L453.204 80.32L453.997 79.7103C453.352 78.8719 453.004 77.8159 453.004 76.48H452.004ZM453.204 80.32L452.436 80.9602C453.336 82.0405 454.492 82.9216 455.877 83.6144L456.324 82.72L456.772 81.8256C455.597 81.2384 454.672 80.5195 453.973 79.6798L453.204 80.32ZM456.324 82.72L455.924 83.6362C457.243 84.2133 458.602 84.7076 460.002 85.1194L460.284 84.16L460.567 83.2006C459.246 82.8123 457.966 82.3467 456.725 81.8038L456.324 82.72ZM460.284 84.16L460.001 85.119L470.561 88.239L470.844 87.28L471.128 86.321L460.568 83.201L460.284 84.16ZM470.844 87.28L470.572 88.2421C475.797 89.7239 479.731 92.0397 482.453 95.1398L483.204 94.48L483.956 93.8202C480.918 90.3603 476.612 87.8761 471.117 86.3179L470.844 87.28ZM483.204 94.48L482.461 95.149C485.169 98.1573 486.524 101.756 486.524 106H487.524H488.524C488.524 101.284 487 97.2027 483.948 93.811L483.204 94.48ZM487.524 106H486.524C486.524 109.648 485.54 112.844 483.586 115.625L484.404 116.2L485.223 116.775C487.428 113.636 488.524 110.032 488.524 106H487.524ZM484.404 116.2L483.583 115.63C481.697 118.346 479.043 120.518 475.581 122.134L476.004 123.04L476.427 123.946C480.166 122.202 483.112 119.814 485.226 116.77L484.404 116.2ZM476.004 123.04L475.598 122.126C472.151 123.658 468.094 124.44 463.404 124.44V125.44V126.44C468.314 126.44 472.658 125.622 476.411 123.954L476.004 123.04Z" fill="#4B5563" mask="url(#path-1-outside-1_10_104)"/>
</g>
<g filter="url(#filter1_d_10_104)">
<mask id="path-3-outside-2_10_104" maskUnits="userSpaceOnUse" x="235" y="138" width="255" height="120" fill="black">
<rect fill="white" x="235" y="138" width="255" height="120"/>
<path d="M236.24 230V140.6H273.92C279.52 140.6 284.36 141.6 288.44 143.6C292.52 145.52 295.64 148.32 297.8 152C299.96 155.6 301.04 159.88 301.04 164.84C301.04 169.16 299.92 173.12 297.68 176.72C295.52 180.24 292.12 183.04 287.48 185.12V179.12C291.56 180.72 294.88 182.76 297.44 185.24C300 187.64 301.84 190.36 302.96 193.4C304.16 196.44 304.76 199.64 304.76 203C304.76 211.4 302 218 296.48 222.8C291.04 227.6 283.56 230 274.04 230H236.24ZM250.4 217.4H275.12C279.84 217.4 283.6 216.12 286.4 213.56C289.2 210.92 290.6 207.44 290.6 203.12C290.6 198.72 289.2 195.24 286.4 192.68C283.6 190.04 279.84 188.72 275.12 188.72H250.4V217.4ZM250.4 176.24H274.28C278.12 176.24 281.2 175.16 283.52 173C285.84 170.76 287 167.84 287 164.24C287 160.64 285.84 157.84 283.52 155.84C281.2 153.84 278.12 152.84 274.28 152.84H250.4V176.24ZM318.006 230V139.16H331.566V230H318.006ZM378.74 231.44C372.5 231.44 366.78 229.96 361.58 227C356.46 224.04 352.38 220 349.34 214.88C346.3 209.76 344.78 203.96 344.78 197.48C344.78 190.92 346.3 185.12 349.34 180.08C352.38 174.96 356.46 170.96 361.58 168.08C366.7 165.12 372.42 163.64 378.74 163.64C385.14 163.64 390.86 165.12 395.9 168.08C401.02 170.96 405.06 174.96 408.02 180.08C411.06 185.12 412.58 190.92 412.58 197.48C412.58 204.04 411.06 209.88 408.02 215C404.98 220.12 400.9 224.16 395.78 227.12C390.66 230 384.98 231.44 378.74 231.44ZM378.74 218.84C382.58 218.84 385.98 217.92 388.94 216.08C391.9 214.24 394.22 211.72 395.9 208.52C397.66 205.24 398.54 201.56 398.54 197.48C398.54 193.4 397.66 189.76 395.9 186.56C394.22 183.36 391.9 180.84 388.94 179C385.98 177.16 382.58 176.24 378.74 176.24C374.98 176.24 371.58 177.16 368.54 179C365.58 180.84 363.22 183.36 361.46 186.56C359.78 189.76 358.94 193.4 358.94 197.48C358.94 201.56 359.78 205.24 361.46 208.52C363.22 211.72 365.58 214.24 368.54 216.08C371.58 217.92 374.98 218.84 378.74 218.84ZM457.138 256.4C452.418 256.4 448.058 255.64 444.058 254.12C440.058 252.6 436.618 250.48 433.738 247.76C430.858 245.12 428.698 242 427.258 238.4L439.738 233.24C440.858 236.28 442.898 238.8 445.858 240.8C448.898 242.8 452.618 243.8 457.018 243.8C460.458 243.8 463.538 243.12 466.258 241.76C468.978 240.48 471.138 238.56 472.738 236C474.338 233.52 475.138 230.52 475.138 227V212.36L477.538 215.12C475.298 219.28 472.178 222.44 468.178 224.6C464.258 226.76 459.818 227.84 454.858 227.84C448.858 227.84 443.458 226.44 438.658 223.64C433.858 220.84 430.058 217 427.258 212.12C424.538 207.24 423.178 201.76 423.178 195.68C423.178 189.52 424.538 184.04 427.258 179.24C430.058 174.44 433.818 170.64 438.538 167.84C443.258 165.04 448.658 163.64 454.738 163.64C459.698 163.64 464.098 164.72 467.938 166.88C471.858 168.96 475.058 172 477.538 176L475.738 179.36V165.08H488.578V227C488.578 232.6 487.218 237.6 484.498 242C481.858 246.48 478.178 250 473.458 252.56C468.738 255.12 463.298 256.4 457.138 256.4ZM456.418 215.24C460.018 215.24 463.218 214.4 466.018 212.72C468.818 210.96 471.018 208.64 472.618 205.76C474.298 202.8 475.138 199.48 475.138 195.8C475.138 192.12 474.298 188.8 472.618 185.84C470.938 182.88 468.698 180.56 465.898 178.88C463.098 177.12 459.938 176.24 456.418 176.24C452.738 176.24 449.458 177.12 446.578 178.88C443.698 180.56 441.418 182.88 439.738 185.84C438.138 188.72 437.338 192.04 437.338 195.8C437.338 199.4 438.138 202.68 439.738 205.64C441.418 208.6 443.698 210.96 446.578 212.72C449.458 214.4 452.738 215.24 456.418 215.24Z"/>
</mask>
<path d="M236.24 230V140.6H273.92C279.52 140.6 284.36 141.6 288.44 143.6C292.52 145.52 295.64 148.32 297.8 152C299.96 155.6 301.04 159.88 301.04 164.84C301.04 169.16 299.92 173.12 297.68 176.72C295.52 180.24 292.12 183.04 287.48 185.12V179.12C291.56 180.72 294.88 182.76 297.44 185.24C300 187.64 301.84 190.36 302.96 193.4C304.16 196.44 304.76 199.64 304.76 203C304.76 211.4 302 218 296.48 222.8C291.04 227.6 283.56 230 274.04 230H236.24ZM250.4 217.4H275.12C279.84 217.4 283.6 216.12 286.4 213.56C289.2 210.92 290.6 207.44 290.6 203.12C290.6 198.72 289.2 195.24 286.4 192.68C283.6 190.04 279.84 188.72 275.12 188.72H250.4V217.4ZM250.4 176.24H274.28C278.12 176.24 281.2 175.16 283.52 173C285.84 170.76 287 167.84 287 164.24C287 160.64 285.84 157.84 283.52 155.84C281.2 153.84 278.12 152.84 274.28 152.84H250.4V176.24ZM318.006 230V139.16H331.566V230H318.006ZM378.74 231.44C372.5 231.44 366.78 229.96 361.58 227C356.46 224.04 352.38 220 349.34 214.88C346.3 209.76 344.78 203.96 344.78 197.48C344.78 190.92 346.3 185.12 349.34 180.08C352.38 174.96 356.46 170.96 361.58 168.08C366.7 165.12 372.42 163.64 378.74 163.64C385.14 163.64 390.86 165.12 395.9 168.08C401.02 170.96 405.06 174.96 408.02 180.08C411.06 185.12 412.58 190.92 412.58 197.48C412.58 204.04 411.06 209.88 408.02 215C404.98 220.12 400.9 224.16 395.78 227.12C390.66 230 384.98 231.44 378.74 231.44ZM378.74 218.84C382.58 218.84 385.98 217.92 388.94 216.08C391.9 214.24 394.22 211.72 395.9 208.52C397.66 205.24 398.54 201.56 398.54 197.48C398.54 193.4 397.66 189.76 395.9 186.56C394.22 183.36 391.9 180.84 388.94 179C385.98 177.16 382.58 176.24 378.74 176.24C374.98 176.24 371.58 177.16 368.54 179C365.58 180.84 363.22 183.36 361.46 186.56C359.78 189.76 358.94 193.4 358.94 197.48C358.94 201.56 359.78 205.24 361.46 208.52C363.22 211.72 365.58 214.24 368.54 216.08C371.58 217.92 374.98 218.84 378.74 218.84ZM457.138 256.4C452.418 256.4 448.058 255.64 444.058 254.12C440.058 252.6 436.618 250.48 433.738 247.76C430.858 245.12 428.698 242 427.258 238.4L439.738 233.24C440.858 236.28 442.898 238.8 445.858 240.8C448.898 242.8 452.618 243.8 457.018 243.8C460.458 243.8 463.538 243.12 466.258 241.76C468.978 240.48 471.138 238.56 472.738 236C474.338 233.52 475.138 230.52 475.138 227V212.36L477.538 215.12C475.298 219.28 472.178 222.44 468.178 224.6C464.258 226.76 459.818 227.84 454.858 227.84C448.858 227.84 443.458 226.44 438.658 223.64C433.858 220.84 430.058 217 427.258 212.12C424.538 207.24 423.178 201.76 423.178 195.68C423.178 189.52 424.538 184.04 427.258 179.24C430.058 174.44 433.818 170.64 438.538 167.84C443.258 165.04 448.658 163.64 454.738 163.64C459.698 163.64 464.098 164.72 467.938 166.88C471.858 168.96 475.058 172 477.538 176L475.738 179.36V165.08H488.578V227C488.578 232.6 487.218 237.6 484.498 242C481.858 246.48 478.178 250 473.458 252.56C468.738 255.12 463.298 256.4 457.138 256.4ZM456.418 215.24C460.018 215.24 463.218 214.4 466.018 212.72C468.818 210.96 471.018 208.64 472.618 205.76C474.298 202.8 475.138 199.48 475.138 195.8C475.138 192.12 474.298 188.8 472.618 185.84C470.938 182.88 468.698 180.56 465.898 178.88C463.098 177.12 459.938 176.24 456.418 176.24C452.738 176.24 449.458 177.12 446.578 178.88C443.698 180.56 441.418 182.88 439.738 185.84C438.138 188.72 437.338 192.04 437.338 195.8C437.338 199.4 438.138 202.68 439.738 205.64C441.418 208.6 443.698 210.96 446.578 212.72C449.458 214.4 452.738 215.24 456.418 215.24Z" fill="#8BBEB2"/>
<path d="M236.24 230H235.24V231H236.24V230ZM236.24 140.6V139.6H235.24V140.6H236.24ZM288.44 143.6L288 144.498L288.007 144.501L288.014 144.505L288.44 143.6ZM297.8 152L296.938 152.506L296.943 152.514L297.8 152ZM297.68 176.72L296.831 176.192L296.828 176.197L297.68 176.72ZM287.48 185.12H286.48V186.664L287.889 186.033L287.48 185.12ZM287.48 179.12L287.845 178.189L286.48 177.654V179.12H287.48ZM297.44 185.24L296.744 185.958L296.75 185.964L296.756 185.97L297.44 185.24ZM302.96 193.4L302.022 193.746L302.026 193.756L302.03 193.767L302.96 193.4ZM296.48 222.8L295.824 222.045L295.818 222.05L296.48 222.8ZM250.4 217.4H249.4V218.4H250.4V217.4ZM286.4 213.56L287.075 214.298L287.08 214.293L287.086 214.288L286.4 213.56ZM286.4 192.68L285.714 193.408L285.72 193.413L285.725 193.418L286.4 192.68ZM250.4 188.72V187.72H249.4V188.72H250.4ZM250.4 176.24H249.4V177.24H250.4V176.24ZM283.52 173L284.201 173.732L284.208 173.726L284.215 173.719L283.52 173ZM250.4 152.84V151.84H249.4V152.84H250.4ZM236.24 230H237.24V140.6H236.24H235.24V230H236.24ZM236.24 140.6V141.6H273.92V140.6V139.6H236.24V140.6ZM273.92 140.6V141.6C279.402 141.6 284.085 142.579 288 144.498L288.44 143.6L288.88 142.702C284.635 140.621 279.638 139.6 273.92 139.6V140.6ZM288.44 143.6L288.014 144.505C291.923 146.344 294.886 149.01 296.938 152.506L297.8 152L298.662 151.494C296.394 147.63 293.117 144.696 288.866 142.695L288.44 143.6ZM297.8 152L296.943 152.514C298.994 155.933 300.04 160.028 300.04 164.84H301.04H302.04C302.04 159.732 300.926 155.267 298.657 151.485L297.8 152ZM301.04 164.84H300.04C300.04 168.977 298.97 172.753 296.831 176.192L297.68 176.72L298.529 177.248C300.87 173.487 302.04 169.343 302.04 164.84H301.04ZM297.68 176.72L296.828 176.197C294.795 179.509 291.57 182.191 287.071 184.207L287.48 185.12L287.889 186.033C292.67 183.889 296.245 180.971 298.532 177.243L297.68 176.72ZM287.48 185.12H288.48V179.12H287.48H286.48V185.12H287.48ZM287.48 179.12L287.115 180.051C291.099 181.613 294.298 183.589 296.744 185.958L297.44 185.24L298.136 184.522C295.462 181.931 292.021 179.827 287.845 178.189L287.48 179.12ZM297.44 185.24L296.756 185.97C299.212 188.272 300.96 190.864 302.022 193.746L302.96 193.4L303.898 193.054C302.72 189.856 300.788 187.008 298.124 184.51L297.44 185.24ZM302.96 193.4L302.03 193.767C303.182 196.687 303.76 199.762 303.76 203H304.76H305.76C305.76 199.518 305.138 196.193 303.89 193.033L302.96 193.4ZM304.76 203H303.76C303.76 211.158 301.092 217.465 295.824 222.045L296.48 222.8L297.136 223.555C302.908 218.535 305.76 211.642 305.76 203H304.76ZM296.48 222.8L295.818 222.05C290.612 226.644 283.394 229 274.04 229V230V231C283.726 231 291.468 228.556 297.142 223.55L296.48 222.8ZM274.04 230V229H236.24V230V231H274.04V230ZM250.4 217.4V218.4H275.12V217.4V216.4H250.4V217.4ZM275.12 217.4V218.4C280.026 218.4 284.048 217.065 287.075 214.298L286.4 213.56L285.725 212.822C283.152 215.175 279.654 216.4 275.12 216.4V217.4ZM286.4 213.56L287.086 214.288C290.112 211.435 291.6 207.678 291.6 203.12H290.6H289.6C289.6 207.202 288.288 210.405 285.714 212.832L286.4 213.56ZM290.6 203.12H291.6C291.6 198.488 290.116 194.722 287.075 191.942L286.4 192.68L285.725 193.418C288.284 195.758 289.6 198.952 289.6 203.12H290.6ZM286.4 192.68L287.086 191.952C284.06 189.1 280.034 187.72 275.12 187.72V188.72V189.72C279.646 189.72 283.14 190.98 285.714 193.408L286.4 192.68ZM275.12 188.72V187.72H250.4V188.72V189.72H275.12V188.72ZM250.4 188.72H249.4V217.4H250.4H251.4V188.72H250.4ZM250.4 176.24V177.24H274.28V176.24V175.24H250.4V176.24ZM274.28 176.24V177.24C278.316 177.24 281.659 176.099 284.201 173.732L283.52 173L282.839 172.268C280.741 174.221 277.924 175.24 274.28 175.24V176.24ZM283.52 173L284.215 173.719C286.753 171.268 288 168.077 288 164.24H287H286C286 167.603 284.927 170.252 282.825 172.281L283.52 173ZM287 164.24H288C288 160.405 286.753 157.306 284.173 155.083L283.52 155.84L282.867 156.597C284.927 158.374 286 160.875 286 164.24H287ZM283.52 155.84L284.173 155.083C281.629 152.889 278.297 151.84 274.28 151.84V152.84V153.84C277.943 153.84 280.771 154.791 282.867 156.597L283.52 155.84ZM274.28 152.84V151.84H250.4V152.84V153.84H274.28V152.84ZM250.4 152.84H249.4V176.24H250.4H251.4V152.84H250.4ZM318.006 230H317.006V231H318.006V230ZM318.006 139.16V138.16H317.006V139.16H318.006ZM331.566 139.16H332.566V138.16H331.566V139.16ZM331.566 230V231H332.566V230H331.566ZM318.006 230H319.006V139.16H318.006H317.006V230H318.006ZM318.006 139.16V140.16H331.566V139.16V138.16H318.006V139.16ZM331.566 139.16H330.566V230H331.566H332.566V139.16H331.566ZM331.566 230V229H318.006V230V231H331.566V230ZM361.58 227L361.079 227.866L361.085 227.869L361.58 227ZM349.34 214.88L348.48 215.391L348.48 215.391L349.34 214.88ZM349.34 180.08L350.196 180.597L350.2 180.591L349.34 180.08ZM361.58 168.08L362.07 168.952L362.081 168.946L361.58 168.08ZM395.9 168.08L395.394 168.942L395.402 168.947L395.41 168.952L395.9 168.08ZM408.02 180.08L407.154 180.581L407.159 180.589L407.164 180.596L408.02 180.08ZM408.02 215L408.88 215.511L408.88 215.511L408.02 215ZM395.78 227.12L396.27 227.992L396.281 227.986L395.78 227.12ZM388.94 216.08L389.468 216.929L389.468 216.929L388.94 216.08ZM395.9 208.52L395.019 208.047L395.015 208.055L395.9 208.52ZM395.9 186.56L395.015 187.025L395.019 187.033L395.024 187.042L395.9 186.56ZM368.54 179L368.022 178.144L368.012 178.151L368.54 179ZM361.46 186.56L360.584 186.078L360.579 186.087L360.575 186.095L361.46 186.56ZM361.46 208.52L360.57 208.976L360.577 208.989L360.584 209.002L361.46 208.52ZM368.54 216.08L368.012 216.929L368.022 216.935L368.54 216.08ZM378.74 231.44V230.44C372.666 230.44 367.117 229.001 362.075 226.131L361.58 227L361.085 227.869C366.443 230.919 372.334 232.44 378.74 232.44V231.44ZM361.58 227L362.081 226.134C357.11 223.261 353.153 219.343 350.2 214.369L349.34 214.88L348.48 215.391C351.607 220.657 355.81 224.819 361.079 227.866L361.58 227ZM349.34 214.88L350.2 214.369C347.26 209.417 345.78 203.797 345.78 197.48H344.78H343.78C343.78 204.123 345.34 210.103 348.48 215.391L349.34 214.88ZM344.78 197.48H345.78C345.78 191.081 347.261 185.463 350.196 180.596L349.34 180.08L348.484 179.564C345.339 184.777 343.78 190.759 343.78 197.48H344.78ZM349.34 180.08L350.2 180.591C353.152 175.619 357.105 171.744 362.07 168.952L361.58 168.08L361.09 167.208C355.815 170.176 351.608 174.301 348.48 179.569L349.34 180.08ZM361.58 168.08L362.081 168.946C367.038 166.08 372.583 164.64 378.74 164.64V163.64V162.64C372.257 162.64 366.362 164.16 361.079 167.214L361.58 168.08ZM378.74 163.64V164.64C384.979 164.64 390.521 166.081 395.394 168.942L395.9 168.08L396.406 167.218C391.199 164.159 385.301 162.64 378.74 162.64V163.64ZM395.9 168.08L395.41 168.952C400.373 171.743 404.283 175.614 407.154 180.581L408.02 180.08L408.886 179.579C405.837 174.306 401.668 170.177 396.39 167.208L395.9 168.08ZM408.02 180.08L407.164 180.596C410.099 185.463 411.58 191.081 411.58 197.48H412.58H413.58C413.58 190.759 412.021 184.777 408.876 179.564L408.02 180.08ZM412.58 197.48H411.58C411.58 203.879 410.099 209.539 407.16 214.489L408.02 215L408.88 215.511C412.021 210.221 413.58 204.201 413.58 197.48H412.58ZM408.02 215L407.16 214.489C404.207 219.463 400.25 223.381 395.279 226.254L395.78 227.12L396.281 227.986C401.55 224.939 405.753 220.777 408.88 215.511L408.02 215ZM395.78 227.12L395.29 226.248C390.329 229.039 384.819 230.44 378.74 230.44V231.44V232.44C385.141 232.44 390.991 230.961 396.27 227.992L395.78 227.12ZM378.74 218.84V219.84C382.747 219.84 386.334 218.878 389.468 216.929L388.94 216.08L388.412 215.231C385.626 216.962 382.413 217.84 378.74 217.84V218.84ZM388.94 216.08L389.468 216.929C392.585 214.992 395.026 212.336 396.785 208.985L395.9 208.52L395.015 208.055C393.414 211.104 391.215 213.488 388.412 215.231L388.94 216.08ZM395.9 208.52L396.781 208.993C398.626 205.554 399.54 201.709 399.54 197.48H398.54H397.54C397.54 201.411 396.694 204.926 395.019 208.047L395.9 208.52ZM398.54 197.48H399.54C399.54 193.252 398.627 189.442 396.776 186.078L395.9 186.56L395.024 187.042C396.693 190.078 397.54 193.548 397.54 197.48H398.54ZM395.9 186.56L396.785 186.095C395.026 182.744 392.585 180.088 389.468 178.151L388.94 179L388.412 179.849C391.215 181.592 393.414 183.976 395.015 187.025L395.9 186.56ZM388.94 179L389.468 178.151C386.334 176.202 382.747 175.24 378.74 175.24V176.24V177.24C382.413 177.24 385.626 178.118 388.412 179.849L388.94 179ZM378.74 176.24V175.24C374.809 175.24 371.228 176.204 368.022 178.144L368.54 179L369.058 179.855C371.932 178.116 375.151 177.24 378.74 177.24V176.24ZM368.54 179L368.012 178.151C364.899 180.086 362.422 182.735 360.584 186.078L361.46 186.56L362.336 187.042C364.018 183.985 366.261 181.594 369.068 179.849L368.54 179ZM361.46 186.56L360.575 186.095C358.81 189.456 357.94 193.259 357.94 197.48H358.94H359.94C359.94 193.541 360.75 190.064 362.345 187.025L361.46 186.56ZM358.94 197.48H357.94C357.94 201.701 358.81 205.54 360.57 208.976L361.46 208.52L362.35 208.064C360.75 204.94 359.94 201.419 359.94 197.48H358.94ZM361.46 208.52L360.584 209.002C362.422 212.345 364.899 214.994 368.012 216.929L368.54 216.08L369.068 215.231C366.261 213.486 364.018 211.095 362.336 208.038L361.46 208.52ZM368.54 216.08L368.022 216.935C371.228 218.876 374.809 219.84 378.74 219.84V218.84V217.84C375.151 217.84 371.932 216.964 369.058 215.224L368.54 216.08ZM444.058 254.12L444.414 253.185L444.414 253.185L444.058 254.12ZM433.738 247.76L434.425 247.033L434.42 247.028L434.414 247.023L433.738 247.76ZM427.258 238.4L426.876 237.476L425.963 237.854L426.33 238.771L427.258 238.4ZM439.738 233.24L440.677 232.894L440.317 231.919L439.356 232.316L439.738 233.24ZM445.858 240.8L445.299 241.629L445.309 241.635L445.858 240.8ZM466.258 241.76L465.833 240.855L465.822 240.86L465.811 240.866L466.258 241.76ZM472.738 236L471.898 235.458L471.894 235.464L471.89 235.47L472.738 236ZM475.138 212.36L475.893 211.704L474.138 209.686V212.36H475.138ZM477.538 215.12L478.419 215.594L478.747 214.985L478.293 214.464L477.538 215.12ZM468.178 224.6L467.703 223.72L467.696 223.724L468.178 224.6ZM438.658 223.64L438.155 224.504L438.155 224.504L438.658 223.64ZM427.258 212.12L426.385 212.607L426.391 212.618L427.258 212.12ZM427.258 179.24L426.395 178.736L426.388 178.747L427.258 179.24ZM438.538 167.84L439.049 168.7L439.049 168.7L438.538 167.84ZM467.938 166.88L467.448 167.752L467.459 167.758L467.47 167.763L467.938 166.88ZM477.538 176L478.42 176.472L478.692 175.964L478.388 175.473L477.538 176ZM475.738 179.36H474.738L476.62 179.832L475.738 179.36ZM475.738 165.08V164.08H474.738V165.08H475.738ZM488.578 165.08H489.578V164.08H488.578V165.08ZM484.498 242L483.648 241.474L483.642 241.483L483.637 241.492L484.498 242ZM473.458 252.56L473.935 253.439L473.935 253.439L473.458 252.56ZM466.018 212.72L466.533 213.577L466.542 213.572L466.551 213.567L466.018 212.72ZM472.618 205.76L471.749 205.266L471.744 205.274L472.618 205.76ZM465.898 178.88L465.366 179.727L465.375 179.732L465.384 179.737L465.898 178.88ZM446.578 178.88L447.082 179.744L447.091 179.739L447.1 179.733L446.578 178.88ZM439.738 185.84L438.869 185.346L438.864 185.354L439.738 185.84ZM439.738 205.64L438.859 206.116L438.864 206.125L438.869 206.134L439.738 205.64ZM446.578 212.72L446.057 213.573L446.066 213.579L446.075 213.584L446.578 212.72ZM457.138 256.4V255.4C452.527 255.4 448.289 254.658 444.414 253.185L444.058 254.12L443.703 255.055C447.828 256.622 452.31 257.4 457.138 257.4V256.4ZM444.058 254.12L444.414 253.185C440.527 251.708 437.202 249.656 434.425 247.033L433.738 247.76L433.052 248.487C436.035 251.304 439.59 253.492 443.703 255.055L444.058 254.12ZM433.738 247.76L434.414 247.023C431.644 244.483 429.571 241.488 428.187 238.029L427.258 238.4L426.33 238.771C427.826 242.512 430.073 245.757 433.063 248.497L433.738 247.76ZM427.258 238.4L427.641 239.324L440.121 234.164L439.738 233.24L439.356 232.316L426.876 237.476L427.258 238.4ZM439.738 233.24L438.8 233.586C440 236.843 442.184 239.524 445.299 241.629L445.858 240.8L446.418 239.971C443.613 238.076 441.717 235.717 440.677 232.894L439.738 233.24ZM445.858 240.8L445.309 241.635C448.543 243.763 452.464 244.8 457.018 244.8V243.8V242.8C452.772 242.8 449.253 241.837 446.408 239.965L445.858 240.8ZM457.018 243.8V244.8C460.593 244.8 463.83 244.092 466.706 242.654L466.258 241.76L465.811 240.866C463.247 242.148 460.324 242.8 457.018 242.8V243.8ZM466.258 241.76L466.684 242.665C469.579 241.303 471.885 239.252 473.586 236.53L472.738 236L471.89 235.47C470.392 237.868 468.378 239.657 465.833 240.855L466.258 241.76ZM472.738 236L473.579 236.542C475.302 233.872 476.138 230.675 476.138 227H475.138H474.138C474.138 230.365 473.375 233.168 471.898 235.458L472.738 236ZM475.138 227H476.138V212.36H475.138H474.138V227H475.138ZM475.138 212.36L474.384 213.016L476.784 215.776L477.538 215.12L478.293 214.464L475.893 211.704L475.138 212.36ZM477.538 215.12L476.658 214.646C474.507 218.641 471.524 221.657 467.703 223.72L468.178 224.6L468.654 225.48C472.832 223.223 476.09 219.919 478.419 215.594L477.538 215.12ZM468.178 224.6L467.696 223.724C463.939 225.794 459.668 226.84 454.858 226.84V227.84V228.84C459.969 228.84 464.578 227.726 468.661 225.476L468.178 224.6ZM454.858 227.84V226.84C449.021 226.84 443.797 225.48 439.162 222.776L438.658 223.64L438.155 224.504C443.12 227.4 448.696 228.84 454.858 228.84V227.84ZM438.658 223.64L439.162 222.776C434.515 220.066 430.84 216.353 428.126 211.622L427.258 212.12L426.391 212.618C429.277 217.647 433.202 221.614 438.155 224.504L438.658 223.64ZM427.258 212.12L428.132 211.633C425.502 206.915 424.178 201.605 424.178 195.68H423.178H422.178C422.178 201.915 423.575 207.565 426.385 212.607L427.258 212.12ZM423.178 195.68H424.178C424.178 189.672 425.503 184.366 428.128 179.733L427.258 179.24L426.388 178.747C423.574 183.714 422.178 189.368 422.178 195.68H423.178ZM427.258 179.24L428.122 179.744C430.838 175.089 434.477 171.412 439.049 168.7L438.538 167.84L438.028 166.98C433.16 169.868 429.279 173.791 426.395 178.736L427.258 179.24ZM438.538 167.84L439.049 168.7C443.598 166.001 448.818 164.64 454.738 164.64V163.64V162.64C448.499 162.64 442.919 164.079 438.028 166.98L438.538 167.84ZM454.738 163.64V164.64C459.549 164.64 463.776 165.686 467.448 167.752L467.938 166.88L468.429 166.008C464.421 163.754 459.848 162.64 454.738 162.64V163.64ZM467.938 166.88L467.47 167.763C471.224 169.755 474.296 172.668 476.689 176.527L477.538 176L478.388 175.473C475.821 171.332 472.493 168.165 468.407 165.997L467.938 166.88ZM477.538 176L476.657 175.528L474.857 178.888L475.738 179.36L476.62 179.832L478.42 176.472L477.538 176ZM475.738 179.36H476.738V165.08H475.738H474.738V179.36H475.738ZM475.738 165.08V166.08H488.578V165.08V164.08H475.738V165.08ZM488.578 165.08H487.578V227H488.578H489.578V165.08H488.578ZM488.578 227H487.578C487.578 232.43 486.262 237.245 483.648 241.474L484.498 242L485.349 242.526C488.175 237.955 489.578 232.77 489.578 227H488.578ZM484.498 242L483.637 241.492C481.092 245.811 477.548 249.205 472.982 251.681L473.458 252.56L473.935 253.439C478.809 250.795 482.625 247.149 485.36 242.508L484.498 242ZM473.458 252.56L472.982 251.681C468.428 254.151 463.157 255.4 457.138 255.4V256.4V257.4C463.44 257.4 469.049 256.089 473.935 253.439L473.458 252.56ZM456.418 215.24V216.24C460.181 216.24 463.562 215.36 466.533 213.577L466.018 212.72L465.504 211.863C462.875 213.44 459.856 214.24 456.418 214.24V215.24ZM466.018 212.72L466.551 213.567C469.493 211.717 471.81 209.273 473.493 206.246L472.618 205.76L471.744 205.274C470.226 208.007 468.144 210.203 465.486 211.873L466.018 212.72ZM472.618 205.76L473.488 206.254C475.26 203.131 476.138 199.639 476.138 195.8H475.138H474.138C474.138 199.321 473.336 202.469 471.749 205.266L472.618 205.76ZM475.138 195.8H476.138C476.138 191.961 475.26 188.469 473.488 185.346L472.618 185.84L471.749 186.334C473.336 189.131 474.138 192.279 474.138 195.8H475.138ZM472.618 185.84L473.488 185.346C471.727 182.243 469.367 179.795 466.413 178.023L465.898 178.88L465.384 179.737C468.03 181.325 470.15 183.517 471.749 186.334L472.618 185.84ZM465.898 178.88L466.431 178.033C463.461 176.167 460.114 175.24 456.418 175.24V176.24V177.24C459.763 177.24 462.736 178.073 465.366 179.727L465.898 178.88ZM456.418 176.24V175.24C452.572 175.24 449.108 176.162 446.057 178.027L446.578 178.88L447.1 179.733C449.809 178.078 452.905 177.24 456.418 177.24V176.24ZM446.578 178.88L446.075 178.016C443.039 179.787 440.634 182.236 438.869 185.346L439.738 185.84L440.608 186.334C442.203 183.524 444.358 181.333 447.082 179.744L446.578 178.88ZM439.738 185.84L438.864 185.354C437.171 188.403 436.338 191.894 436.338 195.8H437.338H438.338C438.338 192.186 439.106 189.037 440.613 186.326L439.738 185.84ZM437.338 195.8H436.338C436.338 199.554 437.174 202.999 438.859 206.116L439.738 205.64L440.618 205.164C439.103 202.361 438.338 199.246 438.338 195.8H437.338ZM439.738 205.64L438.869 206.134C440.632 209.24 443.031 211.724 446.057 213.573L446.578 212.72L447.1 211.867C444.366 210.196 442.205 207.96 440.608 205.146L439.738 205.64ZM446.578 212.72L446.075 213.584C449.123 215.362 452.58 216.24 456.418 216.24V215.24V214.24C452.897 214.24 449.794 213.438 447.082 211.856L446.578 212.72Z" fill="#4B5563" mask="url(#path-3-outside-2_10_104)"/>
</g>
<g clip-path="url(#clip0_10_104)">
<g filter="url(#filter2_d_10_104)">
<path d="M184 172.333H188.167C192.587 172.333 196.826 174.089 199.952 177.215C203.077 180.34 204.833 184.58 204.833 189C204.833 193.42 203.077 197.66 199.952 200.785C196.826 203.911 192.587 205.667 188.167 205.667H184M184 172.333H117.333V209.833C117.333 214.254 119.089 218.493 122.215 221.618C125.341 224.744 129.58 226.5 134 226.5H167.333C171.754 226.5 175.993 224.744 179.118 221.618C182.244 218.493 184 214.254 184 209.833V172.333ZM134 143.167V155.667M150.667 143.167V155.667M167.333 143.167V155.667" stroke="#8BBEB2" stroke-width="7" stroke-linecap="round" stroke-linejoin="round"/>
</g>
</g>
<defs>
<filter id="filter0_d_10_104" x="4.23999" y="33.6" width="488.54" height="100.84" filterUnits="userSpaceOnUse" color-interpolation-filters="sRGB">
<feFlood flood-opacity="0" result="BackgroundImageFix"/>
<feColorMatrix in="SourceAlpha" type="matrix" values="0 0 0 0 0 0 0 0 0 0 0 0 0 0 0 0 0 0 127 0" result="hardAlpha"/>
<feOffset dy="4"/>
<feGaussianBlur stdDeviation="2"/>
<feComposite in2="hardAlpha" operator="out"/>
<feColorMatrix type="matrix" values="0 0 0 0 0.941176 0 0 0 0 0.941176 0 0 0 0 0.941176 0 0 0 0.25 0"/>
<feBlend mode="normal" in2="BackgroundImageFix" result="effect1_dropShadow_10_104"/>
<feBlend mode="normal" in="SourceGraphic" in2="effect1_dropShadow_10_104" result="shape"/>
</filter>
<filter id="filter1_d_10_104" x="231.24" y="138.16" width="262.338" height="127.24" filterUnits="userSpaceOnUse" color-interpolation-filters="sRGB">
<feFlood flood-opacity="0" result="BackgroundImageFix"/>
<feColorMatrix in="SourceAlpha" type="matrix" values="0 0 0 0 0 0 0 0 0 0 0 0 0 0 0 0 0 0 127 0" result="hardAlpha"/>
<feOffset dy="4"/>
<feGaussianBlur stdDeviation="2"/>
<feComposite in2="hardAlpha" operator="out"/>
<feColorMatrix type="matrix" values="0 0 0 0 0.941176 0 0 0 0 0.941176 0 0 0 0 0.941176 0 0 0 0.25 0"/>
<feBlend mode="normal" in2="BackgroundImageFix" result="effect1_dropShadow_10_104"/>
<feBlend mode="normal" in="SourceGraphic" in2="effect1_dropShadow_10_104" result="shape"/>
</filter>
<filter id="filter2_d_10_104" x="109.833" y="139.667" width="102.5" height="98.3333" filterUnits="userSpaceOnUse" color-interpolation-filters="sRGB">
<feFlood flood-opacity="0" result="BackgroundImageFix"/>
<feColorMatrix in="SourceAlpha" type="matrix" values="0 0 0 0 0 0 0 0 0 0 0 0 0 0 0 0 0 0 127 0" result="hardAlpha"/>
<feOffset dy="4"/>
<feGaussianBlur stdDeviation="2"/>
<feColorMatrix type="matrix" values="0 0 0 0 0.941176 0 0 0 0 0.941176 0 0 0 0 0.941176 0 0 0 0.25 0"/>
<feBlend mode="normal" in2="BackgroundImageFix" result="effect1_dropShadow_10_104"/>
<feBlend mode="normal" in="SourceGraphic" in2="effect1_dropShadow_10_104" result="shape"/>
</filter>
<clipPath id="clip0_10_104">
<rect width="100" height="100" fill="white" transform="translate(109 139)"/>
</clipPath>
</defs>
</svg>
